<?xml version="1.0" encoding="utf-8"?>
<!-- Generator: Adobe Illustrator 14.0.0, SVG Export Plug-In . SVG Version: 6.00 Build 43363)  -->
<!DOCTYPE svg PUBLIC "-//W3C//DTD SVG 1.1//EN" "http://www.w3.org/Graphics/SVG/1.1/DTD/svg11.dtd">
<svg version="1.1" id="Calque_1" xmlns="http://www.w3.org/2000/svg" xmlns:xlink="http://www.w3.org/1999/xlink" x="0px" y="0px"
	 width="650px" height="201.73px" viewBox="0 0 650 201.73" enable-background="new 0 0 650 201.73" xml:space="preserve">
<g>
	<path fill-rule="evenodd" clip-rule="evenodd" fill="#54A3AE" d="M326.632,10.427c13.945,1.77,26.896,8.107,25.606,24.408
		c-1.128,14.262-14.345,21.082-30.808,21.207c-13.114,0.1-28.048-0.088-42.412,0c-15.567,0.095-31.178-1.211-42.413,1.6
		c0.235,5.554-0.401,10.071-0.401,16.405c0,4.531,1.48,13.338-2.8,13.604c-4.925,0.304-3.2-12.398-3.2-17.605
		c0-19.526,0.116-44.178,1.2-60.417c23.45-1.515,49.789-1.979,75.222-0.8c3.494,0.161,7.064,1.026,9.602,0.401
		c3.203-0.788,5.751-4.414,8.801-6.003c11.843-6.16,28.516-3.133,36.411,6.003c14.528,16.811,12.626,62.293,11.202,92.826
		c-0.845,18.214-1.301,33.609-4.001,48.813c-2.555,14.405-5.844,30.636-13.201,39.61c-4.842,5.902-16.164,10.29-25.609,6.804
		c-18.332-6.771-20.839-33.475-23.204-57.617c-1.798-18.336-3.203-35.86-3.203-57.214c0-5.445-1.137-17.099,2.401-17.606
		c4.859-0.699,3.602,9.802,3.602,12.404c0,27.151,1.615,50.288,4.799,74.019c1.327,9.892,2.302,19.083,5.202,26.009
		c3.419,8.166,11.347,18.172,24.006,14.003c14.198-4.672,17.687-29.479,20.407-47.613c1.826-12.198,2.602-25.759,3.203-40.009
		c1.224-29.156,1.52-60.248-4.806-80.024c-1.308-4.087-3.43-8.099-6-10.803C350.353,6.636,334.896,2.47,326.632,10.427z
		 M326.632,49.239c11.534-1.008,22.785-8.444,18.805-20.807c-4.756-14.755-24.635-12.448-44.813-13.204
		c-23.838-0.891-41.244-0.592-63.615,0c0.571,12.313-1.144,24.464,0,36.011C261.105,46.81,300.563,51.513,326.632,49.239z"/>
	<path fill-rule="evenodd" clip-rule="evenodd" fill="#54A3AE" d="M394.646,74.046c6.187-0.812,5.188,5.845,6.403,9.203
		c1.19,3.283,3.479,7.483,7.203,8.002c5.768,0.805,11.195-5.598,12.004-11.205c0.925-6.41-1.041-13.025-3.2-18.004
		c-5.647-13.022-21.309-21.494-21.206-39.61c0.054-9.846,6.795-24.552,20.405-20.005c4.702,1.569,8.317,8.678,10.004,15.203
		c0.605,2.358,2.186,7.668-2.804,7.203c-2.93-0.274-3.842-6.702-4.799-9.201c-1.211-3.158-2.245-6.996-6.802-7.204
		c-9.203-0.421-11.371,13.623-8.002,22.407c2.534,6.619,8.524,12.146,13.203,18.805c6.632,9.436,14.299,29.484,4.8,41.613
		c-2.884,3.682-10.4,8.544-18.406,5.201c-2.128-0.891-4.932-3.83-6.398-6.404C394.63,85.81,392.195,78.918,394.646,74.046z"/>
	<path fill-rule="evenodd" clip-rule="evenodd" fill="#EEBD4D" d="M59.357,60.042c-15.824-1.552-35.026-1.708-50.813,0
		c-1.802,6.572-2.345,17.007-2.001,25.606c0.124,3.109,1.506,6.976-1.201,8.804c-5.451,0.71-5.045-4.979-5.199-8.004
		c-0.655-12.704,1.039-26.479,3.199-36.009c3.195-14.097,8.545-28.069,16.805-35.61c4.843-4.422,14.099-7.563,22.007-4
		c11.838,5.33,17.115,23.403,20.805,36.81c2.881,10.463,5.841,21.961,5.603,37.607c-0.041,2.54,0.482,10.858-4.802,9.205
		c-2.696-0.845-1.634-12.496-2-17.205C61.171,69.704,60.636,64.771,59.357,60.042z M32.151,15.631
		c-14.683,1.479-18.639,24.39-22.81,37.607c15.776-0.968,32.662-1.041,48.415,0C53.054,39.602,50.639,13.763,32.151,15.631z"/>
	<path fill-rule="evenodd" clip-rule="evenodd" fill="#54A3AE" d="M538.291,57.241c15.203,6.163,27.303,16.034,25.606,38.411
		c-1.739,22.884-16.111,29.207-41.212,29.207c-8.448,0-17.674,0.85-26.009-0.8c-1.59-35.662-0.805-76.124-0.399-112.831
		c23.155-5.104,58.254-1.031,61.62,20.405C560.159,46.052,551.169,54.039,538.291,57.241z M551.894,35.635
		c0.207-19.227-29.065-21.701-50.015-19.206c0,12.27,0,24.54,0,36.809C522.912,53.9,551.681,55.23,551.894,35.635z M501.879,60.843
		c0,19.203,0,38.41,0,57.614c17.367-0.409,40.177,3.018,49.612-6c10.823-10.342,6.516-34.448-3.199-42.413
		c-11.186-9.171-28.81-9.705-45.615-10.403C502.178,59.806,501.862,60.157,501.879,60.843z"/>
	<path fill-rule="evenodd" clip-rule="evenodd" fill="#54A3AE" d="M596.704,15.631c-0.459,15.949-1.11,35.506,0.402,50.813
		c5.841,1.789,19.208-2.74,21.605,1.601c2.714,4.911-4.76,4.402-8.401,4.402c-5.089,0-9.399-0.254-12.805,0.401
		c-2.158,12.126-1.2,26.466-1.2,40.411c0,13.888-0.33,27.934,0.398,40.81c7.447,1.44,17.458,0.801,27.21,0.801
		c9.017,0,19.859-2.01,24.405,3.201c-1.131,4.482-7.54,3.201-12.402,3.201c-10.396,0-19.929,0-31.211,0
		c-4.746,0-11.064,0.552-13.203-2.003c-3.057-3.653-1.597-18.269-1.597-24.405c0-37.863,0.405-84.625,0.399-122.433
		c6.907-4.927,20.494-3.201,34.806-3.201c5.823,0,24-1.754,24.808,2.4c0.958,4.912-6.878,3.749-10.403,3.6
		C627.333,14.716,609.482,15.496,596.704,15.631z"/>
	<path fill-rule="evenodd" clip-rule="evenodd" fill="#54A3AE" d="M462.27,9.627c1.89,2.999,1.713,8.983,1.201,13.204
		c-1.32,0.55-3.2,0.536-4.803,0.8C458.065,19.878,455.239,8.28,462.27,9.627z"/>
	<path fill-rule="evenodd" clip-rule="evenodd" fill="#EEBD4D" d="M119.373,11.229c11.437-1.729,18.262,4.139,22.007,12.402
		c1.967,4.346,5.719,19.128-0.801,18.807c-4.21-0.209-2.625-7.298-3.6-12.005c-1.71-8.263-7.476-15.149-18.404-12.402
		c-4.506,1.132-8.912,5.486-11.603,9.602c-16.825,25.727-17.575,87.173-9.605,125.235c2.607,12.438,6.329,26.518,12.805,34.81
		c3.476,4.449,8.9,8.412,16.406,7.202c3.629-0.586,7.475-3.396,9.202-5.601c1.637-2.092,2.563-8.373,5.199-8.805
		c5.908-0.964,3.487,6.078,2.401,8.403c-5.382,11.517-23.042,16.946-34.408,6.802c-18.015-16.076-22.808-55.526-22.808-88.824
		c0-18.456,0.327-36.376,3.601-52.015C93.324,37.855,102.228,13.819,119.373,11.229z"/>
	<path fill-rule="evenodd" clip-rule="evenodd" fill="#EEBD4D" d="M166.586,117.659c19.105,1.326,43.713,1.326,62.819,0
		c1.937-3.847-2.444-17.46,3.6-18.007c4.375-0.395,4.003,4.28,4.003,9.604c0,23.71,0,43.276,0,67.618
		c0,6.826,1.971,23.314-4.003,22.806c-4.448-0.378-3.201-9.452-3.201-16.404c0-20.698,0.338-36.517-0.399-57.614
		c-19.136-2.29-42.402-0.91-62.819-0.802c-0.721,17.847-0.399,39.856-0.399,59.217c0,5.941,0.914,12.49-2.401,16.405
		c-6.92-1.578-4.8-12.556-4.8-20.008c0-48.693,0-96.753,0-146.438c0-7.209-0.813-20.052,2.399-22.408
		c4.986-3.502,4.403,4.957,4.403,10.403C165.788,52.267,165.167,91.675,166.586,117.659z"/>
	<path fill-rule="evenodd" clip-rule="evenodd" fill="#54A3AE" d="M459.466,36.834c7.896-2.352,5.036,11.008,4.803,17.206
		c-0.315,8.516,0,15.11,0,21.605c0,38.95,0.619,76.817,0.399,116.433c-0.017,2.874-0.708,7.563-3.998,6.804
		c-3.143-0.729-2.401-13.523-2.401-18.408c0-41.434,0-82.671,0-124.433C458.269,49.505,457.308,42.621,459.466,36.834z"/>
	<path fill-rule="evenodd" clip-rule="evenodd" fill="#EEBD4D" d="M271.416,100.853c1.021,3.721,1.828,10.76,0.4,14.404
		c-1.314,0.553-2.792,0.941-4.802,0.801C265.461,112.077,263.424,97.677,271.416,100.853z"/>
	<path fill-rule="evenodd" clip-rule="evenodd" fill="#54A3AE" d="M394.248,178.874c6.216-2.018,5.624,5.053,6.802,8.403
		c1.247,3.528,3.372,7.978,7.603,8.401c7.308,0.734,12.326-7.258,11.604-16.805c-0.732-9.663-5.132-16.865-10.403-23.607
		c-6.061-7.753-13.657-15.182-14.003-27.605c-0.226-8.009,3.373-15.836,7.6-18.807c2.784-1.952,8.046-3.57,12.806-2
		c4.965,1.638,9.615,10.344,10.403,17.205c0.123,1.082,1.178,5.617-3.203,5.201c-2.934-0.279-3.897-6.857-4.799-9.203
		c-1.225-3.19-2.222-6.824-6.402-7.2c-10.826-0.976-11.508,15.584-7.604,24.005c2.854,6.15,8.458,11.422,12.805,17.606
		c6.123,8.71,13.64,27,5.601,39.61c-3.086,4.841-13.536,10.894-21.604,5.601C396.13,196.192,393.253,187.919,394.248,178.874z"/>
	<path fill-rule="evenodd" clip-rule="evenodd" fill="#EEBD4D" d="M35.751,155.667c2.604,2.895,6.379,4.891,9.202,8.803
		c7.182,9.956,10.606,25.128,21.606,28.41c1.674,0.497,12.443-1.336,10.802,4.8c-0.954,3.569-9.993,2.355-13.203,1.202
		c-17.312-6.234-18.102-30.75-32.81-38.011c-5-2.472-11.954-2.756-19.204-2.802c-0.728,6.507-0.399,14.115-0.399,22.404
		c0,5.614,1.872,18.979-3.201,19.206c-5.47,0.248-3.602-14.448-3.602-19.606c0-22.178-0.32-48.478,0.399-68.418
		c20.896-8.269,50.474-2.896,53.216,18.005C60.616,145.344,48.407,152.408,35.751,155.667z M51.754,135.663
		c0.284-1.539,0.406-4.369,0-6.402c-2.806-14.123-23.249-16.759-40.009-13.203c0,11.868,0,23.74,0,35.608
		C28.815,151.616,49.167,149.802,51.754,135.663z"/>
	<path fill-rule="evenodd" clip-rule="evenodd" fill="#EEBD4D" d="M265.815,123.26c7.605-4.111,6.001,8.425,6.001,16.804
		c0,13.271,0,28.041,0,41.212c0,7.224,2.056,20.603-4.802,17.606c-2.977-1.305-2-14.34-2-18.007
		C265.014,160.41,264.852,141.551,265.815,123.26z"/>
	<path fill-rule="evenodd" clip-rule="evenodd" fill="#54A3AE" d="M497.479,142.064c1.363-0.028,2.794-0.126,3.202,0.801
		c2.758,6.155,1.601,15.114,1.601,23.604c0,8.52-0.326,17.428,0.396,24.808c10.723,2.152,23.352,1.2,35.614,1.2
		c30.472,0,60.552,0,92.021,0c3.3,0,15.303-1.275,16.008,2.002c1.135,5.275-11.234,4-15.604,4c-32.375,0-64.327,0-96.828,0
		c-13.102,0-25.729,0.906-36.409-0.8c-2.704-15.834-0.473-36.606-1.201-54.415C496.5,142.688,496.903,142.29,497.479,142.064z"/>
</g>
</svg>
